<?xml version="1.0" encoding="utf-8"?>
<!-- Generator: Adobe Illustrator 15.1.0, SVG Export Plug-In . SVG Version: 6.00 Build 0)  -->
<!DOCTYPE svg PUBLIC "-//W3C//DTD SVG 1.1//EN" "http://www.w3.org/Graphics/SVG/1.1/DTD/svg11.dtd">
<svg version="1.1" id="Layer_1" xmlns="http://www.w3.org/2000/svg" xmlns:xlink="http://www.w3.org/1999/xlink" x="0px" y="0px"
	 width="242.25px" height="77.214px" viewBox="0 0 242.25 77.214" enable-background="new 0 0 242.25 77.214" xml:space="preserve">
<g>
	<g>
		<defs>
			<polygon id="SVGID_1_" points="1.937,1.667 1.937,57.337 22.023,57.337 35.322,66.58 48.695,75.857 48.695,57.337 75.401,57.337 
				75.401,1.667 			"/>
		</defs>
		<use xlink:href="#SVGID_1_"  overflow="visible" fill="#2FA5DE"/>
		<clipPath id="SVGID_2_">
			<use xlink:href="#SVGID_1_"  overflow="visible"/>
		</clipPath>
		<rect x="1.937" y="1.667" clip-path="url(#SVGID_2_)" fill="#2FA5DE" width="73.464" height="74.19"/>
	</g>
	<g>
		<path fill="#FFFFFF" d="M23.703,10.068c0.528,0,0.88,0.411,0.88,0.88V49.16c0,0.469-0.353,0.881-0.88,0.881H17.07
			c-0.528,0-0.939-0.412-0.939-0.881V10.948c0-0.469,0.411-0.88,0.939-0.88H23.703z"/>
		<path fill="#FFFFFF" d="M62.324,10.068c0.528,0,0.939,0.411,0.939,0.88v5.753c0,0.47-0.411,0.88-0.939,0.88H50.351V49.16
			c0,0.469-0.411,0.881-0.881,0.881h-6.691c-0.469,0-0.88-0.412-0.88-0.881V17.581H29.924c-0.47,0-0.88-0.41-0.88-0.88v-5.753
			c0-0.469,0.411-0.88,0.88-0.88H62.324z"/>
	</g>
	<g>
		<path fill="#2FA5DE" d="M105.852,49.335c-0.235,0.645-0.646,0.881-1.35,0.881h-7.043c-0.763,0-1.174-0.236-1.409-0.881
			L81.493,11.3c-0.293-0.704-0.059-1.232,0.705-1.232H89.3c0.763,0,1.232,0.293,1.467,0.998l10.154,28.526h0.118l10.507-28.526
			c0.234-0.705,0.646-0.998,1.467-0.998h7.044c0.705,0,0.998,0.528,0.705,1.232L105.852,49.335z"/>
		<path fill="#2FA5DE" d="M154.158,10.068c0.529,0,0.939,0.411,0.939,0.88v5.753c0,0.47-0.41,0.88-0.939,0.88H133.38v8.629h17.727
			c0.469,0,0.879,0.411,0.879,0.88v5.694c0,0.528-0.41,0.938-0.879,0.938H133.38v8.863h20.777c0.529,0,0.939,0.352,0.939,0.881
			v5.693c0,0.469-0.41,0.881-0.939,0.881h-28.291c-0.528,0-0.939-0.412-0.939-0.881V10.948c0-0.469,0.411-0.88,0.939-0.88H154.158z"
			/>
		<path fill="#2FA5DE" d="M159.499,46.871c-0.411-0.236-0.587-0.646-0.352-1.115l2.7-5.694c0.234-0.469,0.646-0.646,1.115-0.352
			c2.699,1.702,6.104,3.638,10.741,3.638c2.112,0,3.64-0.469,4.578-1.174c1.292-0.938,1.702-2.288,1.702-3.403
			c0-2.406-2.113-3.697-4.989-4.695c-3.17-1.174-7.161-1.938-10.565-4.05c-2.877-1.879-4.989-4.462-4.989-9.099
			c0-3.404,1.409-6.339,4.167-8.394c2.525-1.878,6.281-2.993,11.035-2.993c6.163,0,10.213,1.644,12.796,3.052
			c0.47,0.235,0.587,0.705,0.353,1.115l-2.701,5.693c-0.234,0.411-0.645,0.588-1.115,0.294c-2.699-1.468-6.045-2.817-9.801-2.817
			c-1.938,0-3.404,0.411-4.344,0.998c-0.998,0.704-1.467,1.644-1.467,2.7c0,2.171,2.112,3.286,5.105,4.284
			c3.521,1.115,7.807,1.879,11.152,4.227c2.641,1.819,4.578,4.637,4.578,8.98c0,3.99-1.643,7.102-4.402,9.215
			c-2.758,2.172-6.633,3.346-10.977,3.346C167.306,50.626,162.55,48.689,159.499,46.871z"/>
		<path fill="#2FA5DE" d="M225.003,10.068c0.527,0,0.939,0.411,0.939,0.88v5.753c0,0.47-0.412,0.88-0.939,0.88h-11.975V49.16
			c0,0.469-0.41,0.881-0.881,0.881h-6.69c-0.47,0-0.881-0.412-0.881-0.881V17.581h-11.974c-0.469,0-0.881-0.41-0.881-0.88v-5.753
			c0-0.469,0.412-0.88,0.881-0.88H225.003z"/>
		<path fill="#2FA5DE" d="M237.916,10.068c0.528,0,0.881,0.411,0.881,0.88V49.16c0,0.469-0.353,0.881-0.881,0.881h-6.633
			c-0.527,0-0.939-0.412-0.939-0.881V10.948c0-0.469,0.412-0.88,0.939-0.88H237.916z"/>
	</g>
	<g>
		<path fill="#2FA5DE" d="M60.658,74.619c-0.079,0.318-0.291,0.396-0.634,0.396H57.17c-0.344,0-0.555-0.105-0.634-0.396
			l-3.383-11.232c-0.079-0.236-0.079-0.555,0.317-0.555h2.696c0.344,0,0.581,0.105,0.661,0.424l1.929,7.584h0.053l1.982-7.584
			c0.053-0.318,0.291-0.424,0.661-0.424h1.956c0.37,0,0.582,0.105,0.661,0.424l2.008,7.584h0.053l1.903-7.584
			c0.079-0.318,0.317-0.424,0.661-0.424h2.511c0.396,0,0.396,0.318,0.317,0.555l-3.383,11.232c-0.105,0.291-0.291,0.396-0.634,0.396
			h-2.907c-0.343,0-0.581-0.105-0.634-0.396l-1.612-6.051h-0.053L60.658,74.619z"/>
		<path fill="#2FA5DE" d="M79.238,74.619c-0.079,0.318-0.291,0.396-0.634,0.396H75.75c-0.343,0-0.555-0.105-0.634-0.396
			l-3.383-11.232c-0.079-0.236-0.079-0.555,0.317-0.555h2.695c0.344,0,0.582,0.105,0.661,0.424l1.929,7.584h0.053l1.982-7.584
			c0.053-0.318,0.291-0.424,0.661-0.424h1.956c0.37,0,0.582,0.105,0.661,0.424l2.009,7.584h0.053l1.903-7.584
			c0.08-0.318,0.317-0.424,0.661-0.424h2.51c0.396,0,0.396,0.318,0.317,0.555l-3.383,11.232c-0.106,0.291-0.291,0.396-0.634,0.396
			h-2.907c-0.344,0-0.582-0.105-0.634-0.396l-1.612-6.051h-0.053L79.238,74.619z"/>
		<path fill="#2FA5DE" d="M97.818,74.619c-0.079,0.318-0.291,0.396-0.634,0.396H94.33c-0.344,0-0.555-0.105-0.635-0.396
			l-3.383-11.232c-0.079-0.236-0.079-0.555,0.317-0.555h2.696c0.343,0,0.581,0.105,0.661,0.424l1.929,7.584h0.053l1.982-7.584
			c0.053-0.318,0.291-0.424,0.661-0.424h1.956c0.37,0,0.582,0.105,0.661,0.424l2.009,7.584h0.053l1.903-7.584
			c0.08-0.318,0.317-0.424,0.661-0.424h2.511c0.396,0,0.396,0.318,0.317,0.555l-3.383,11.232c-0.106,0.291-0.291,0.396-0.634,0.396
			h-2.907c-0.344,0-0.582-0.105-0.634-0.396l-1.612-6.051h-0.053L97.818,74.619z"/>
		<path fill="#2FA5DE" d="M111.086,75.201c-1.163,0-2.088-0.926-2.088-2.088c0-1.189,0.925-2.113,2.088-2.113
			c1.163,0,2.088,0.924,2.088,2.113C113.174,74.275,112.249,75.201,111.086,75.201z"/>
		<path fill="#2FA5DE" d="M115.843,57.494c0-1.109,0.872-2.01,2.008-2.01c1.11,0,1.982,0.9,1.982,2.01s-0.872,2.008-1.982,2.008
			C116.715,59.501,115.843,58.603,115.843,57.494z M116.504,62.832h2.696c0.211,0,0.396,0.158,0.396,0.396v11.313
			c0,0.211-0.185,0.396-0.396,0.396h-2.696c-0.238,0-0.396-0.186-0.396-0.396V63.228C116.107,62.99,116.266,62.832,116.504,62.832z"
			/>
		<path fill="#2FA5DE" d="M126.943,70.179c0,0.582,0.08,1.031,0.265,1.375c0.212,0.422,0.608,0.633,1.216,0.633
			c0.502,0,1.084-0.158,1.718-0.66c0.237-0.186,0.476-0.158,0.555,0.053l0.925,1.957c0.105,0.184,0.027,0.396-0.158,0.527
			c-0.979,0.688-2.404,1.137-3.965,1.137c-1.506,0-2.483-0.449-3.092-1.162c-0.713-0.9-0.951-2.143-0.951-3.383V65.58h-1.321
			c-0.212,0-0.396-0.184-0.396-0.422v-1.93c0-0.238,0.185-0.396,0.396-0.396h1.321v-2.379c0-0.236,0.186-0.396,0.396-0.396h2.695
			c0.238,0,0.396,0.16,0.396,0.396v2.379h3.33c0.238,0,0.396,0.158,0.396,0.396v1.93c0,0.238-0.158,0.422-0.396,0.422h-3.33V70.179z
			"/>
		<path fill="#2FA5DE" d="M140.343,74.619c-0.105,0.291-0.291,0.396-0.608,0.396h-3.118c-0.344,0-0.529-0.105-0.635-0.396
			l-4.176-11.232c-0.079-0.236-0.079-0.555,0.317-0.555h2.854c0.344,0,0.555,0.105,0.66,0.424l2.696,8.352h0.053l2.616-8.352
			c0.079-0.318,0.317-0.424,0.661-0.424h2.802c0.396,0,0.422,0.318,0.316,0.555L140.343,74.619z"/>
		<path fill="#2FA5DE" d="M155.671,71.607c0.291-0.16,0.503-0.105,0.608,0.105l0.925,1.717c0.08,0.186,0,0.396-0.186,0.529
			c-0.977,0.688-2.774,1.242-4.545,1.242c-2.035,0-3.674-0.635-4.811-1.771c-1.137-1.109-1.77-2.748-1.77-4.678
			c0-1.822,0.686-3.355,1.77-4.467c1.031-1.057,2.537-1.691,4.44-1.691c2.193,0,3.727,0.82,4.679,2.115
			c0.871,1.189,1.136,2.986,1.109,4.836c0,0.238-0.158,0.396-0.396,0.396h-7.902c0.133,0.688,0.37,1.189,0.793,1.613
			c0.528,0.555,1.375,0.871,2.352,0.871C153.902,72.425,154.8,72.109,155.671,71.607z M154.509,67.642
			c-0.026-0.635-0.212-1.137-0.582-1.586c-0.396-0.422-1.03-0.713-1.797-0.713c-0.793,0-1.506,0.264-1.902,0.713
			c-0.371,0.424-0.582,0.979-0.661,1.586H154.509z"/>
		<path fill="#2FA5DE" d="M165.636,71.527c0-0.582-0.477-0.793-1.137-1.084c-0.767-0.344-1.691-0.633-2.537-1.057
			c-1.295-0.635-1.956-1.639-1.956-3.172c0-2.219,1.718-3.621,4.837-3.621c1.93,0,3.145,0.396,4.096,0.926
			c0.265,0.133,0.265,0.344,0.158,0.529l-0.951,1.955c-0.105,0.211-0.264,0.238-0.475,0.133c-1.058-0.582-1.957-0.768-2.723-0.768
			c-0.714,0-1.242,0.238-1.242,0.846c0,0.529,0.555,0.793,1.163,1.031c0.845,0.344,1.612,0.582,2.458,1.004
			c1.427,0.688,1.981,1.771,1.981,3.066c0,2.221-1.929,3.885-4.995,3.885c-2.193,0-3.436-0.477-4.36-1.004
			c-0.237-0.133-0.29-0.318-0.185-0.502l0.978-2.035c0.105-0.213,0.29-0.266,0.502-0.158c1.058,0.607,1.851,0.977,2.986,0.977
			C165.107,72.478,165.636,72.162,165.636,71.527z"/>
		<path fill="#2FA5DE" d="M175.89,70.179c0,0.582,0.08,1.031,0.265,1.375c0.212,0.422,0.608,0.633,1.216,0.633
			c0.502,0,1.084-0.158,1.718-0.66c0.237-0.186,0.476-0.158,0.555,0.053l0.925,1.957c0.105,0.184,0.027,0.396-0.158,0.527
			c-0.979,0.688-2.404,1.137-3.965,1.137c-1.506,0-2.483-0.449-3.092-1.162c-0.713-0.9-0.951-2.143-0.951-3.383V65.58h-1.321
			c-0.212,0-0.396-0.184-0.396-0.422v-1.93c0-0.238,0.185-0.396,0.396-0.396h1.321v-2.379c0-0.236,0.186-0.396,0.396-0.396h2.695
			c0.238,0,0.396,0.16,0.396,0.396v2.379h3.33c0.238,0,0.396,0.158,0.396,0.396v1.93c0,0.238-0.158,0.422-0.396,0.422h-3.33V70.179z
			"/>
		<path fill="#2FA5DE" d="M182.101,57.494c0-1.109,0.873-2.01,2.009-2.01c1.11,0,1.982,0.9,1.982,2.01s-0.872,2.008-1.982,2.008
			C182.974,59.501,182.101,58.603,182.101,57.494z M182.762,62.832h2.696c0.211,0,0.396,0.158,0.396,0.396v11.313
			c0,0.211-0.186,0.396-0.396,0.396h-2.696c-0.238,0-0.396-0.186-0.396-0.396V63.228C182.366,62.99,182.524,62.832,182.762,62.832z"
			/>
		<path fill="#2FA5DE" d="M190.902,75.201c-1.162,0-2.088-0.926-2.088-2.088c0-1.189,0.926-2.113,2.088-2.113
			c1.164,0,2.088,0.924,2.088,2.113C192.99,74.275,192.066,75.201,190.902,75.201z"/>
		<path fill="#2FA5DE" d="M195.66,57.494c0-1.109,0.871-2.01,2.008-2.01c1.11,0,1.982,0.9,1.982,2.01s-0.872,2.008-1.982,2.008
			C196.531,59.501,195.66,58.603,195.66,57.494z M196.32,62.832h2.696c0.212,0,0.396,0.158,0.396,0.396v11.313
			c0,0.211-0.184,0.396-0.396,0.396h-2.696c-0.238,0-0.396-0.186-0.396-0.396V63.228C195.923,62.99,196.082,62.832,196.32,62.832z"
			/>
		<path fill="#2FA5DE" d="M206.31,64.048c1.031-1.059,2.326-1.455,3.621-1.455c1.348,0,2.617,0.344,3.541,1.189
			c0.846,0.768,1.4,2.01,1.4,3.807v6.951c0,0.211-0.158,0.396-0.396,0.396h-2.722c-0.213,0-0.396-0.186-0.396-0.396v-6.053
			c0-0.871-0.106-1.744-0.609-2.299c-0.316-0.371-0.845-0.609-1.585-0.609c-2.062,0-2.828,1.93-2.828,3.674v5.287
			c0,0.211-0.185,0.396-0.396,0.396h-2.697c-0.237,0-0.396-0.186-0.396-0.396V63.228c0-0.238,0.158-0.396,0.396-0.396h2.591
			c0.212,0,0.396,0.158,0.396,0.396v0.82H206.31z"/>
		<path fill="#2FA5DE" d="M222.511,60.242c-0.264,0.344-0.369,0.873-0.369,1.561v1.029h2.643c0.238,0,0.423,0.158,0.423,0.396v1.93
			c0,0.238-0.185,0.422-0.423,0.422h-2.643v8.961c0,0.211-0.186,0.396-0.396,0.396h-2.696c-0.212,0-0.396-0.186-0.396-0.396V65.58
			h-1.349c-0.212,0-0.396-0.184-0.396-0.422v-1.93c0-0.238,0.185-0.396,0.396-0.396h1.349v-1.4c0-1.348,0.316-2.723,1.215-3.621
			c0.66-0.66,1.612-1.084,2.96-1.084c1.612,0,3.146,0.477,4.07,1.164c0.185,0.131,0.237,0.344,0.158,0.527l-0.925,1.93
			c-0.105,0.186-0.344,0.238-0.582,0.105c-0.713-0.449-1.268-0.688-1.929-0.688C223.093,59.765,222.75,59.951,222.511,60.242z"/>
		<path fill="#2FA5DE" d="M232.501,62.593c3.647,0,6.555,2.379,6.555,6.316c0,3.939-2.907,6.291-6.555,6.291
			c-3.646,0-6.527-2.352-6.527-6.291C225.974,64.972,228.855,62.593,232.501,62.593z M232.501,72.267c1.902,0,3.092-1.4,3.092-3.357
			c0-1.955-1.189-3.355-3.092-3.355s-3.092,1.4-3.092,3.355C229.41,70.867,230.599,72.267,232.501,72.267z"/>
	</g>
</g>
</svg>
